<svg width="7" height="10" viewBox="0 0 7 10" fill="none" xmlns="http://www.w3.org/2000/svg">
<path d="M5.66601 9.68655C5.79589 9.68959 5.92343 9.64943 6.0309 9.57159C6.13837 9.49374 6.22044 9.38206 6.26568 9.25217C6.31093 9.12227 6.31711 8.98059 6.28336 8.84678C6.24962 8.71297 6.17762 8.59375 6.07739 8.5056L2.25293 5.01081L6.07739 1.51725C6.14673 1.4629 6.20479 1.39389 6.24796 1.31448C6.29112 1.23508 6.31844 1.147 6.32823 1.05581C6.33801 0.964618 6.33003 0.872274 6.3048 0.784524C6.27956 0.696774 6.23761 0.6155 6.18158 0.545843C6.12554 0.476186 6.05663 0.419682 5.97915 0.37975C5.90167 0.339819 5.8173 0.31739 5.73131 0.313851C5.64533 0.310313 5.55958 0.325698 5.47945 0.359143C5.39932 0.392588 5.32652 0.44332 5.26562 0.508164L0.886959 4.5043C0.818197 4.5669 0.762981 4.64459 0.72512 4.73214C0.687258 4.8197 0.667651 4.915 0.667651 5.01142C0.667651 5.10785 0.687258 5.20315 0.725119 5.29071C0.762981 5.37826 0.818197 5.45603 0.886959 5.51862L5.26562 9.51861C5.37623 9.62341 5.51811 9.68299 5.66601 9.6867L5.66601 9.68655Z" fill="black"/>
</svg>
