<svg xmlns="http://www.w3.org/2000/svg" xmlns:xlink="http://www.w3.org/1999/xlink" width="820" height="500" viewBox="0 0 820 500">
  <defs>
    <style>
      .cls-1, .cls-2, .cls-4 {
        fill: #fff;
      }

      .cls-1, .cls-2, .cls-3 {
        fill-rule: evenodd;
      }

      .cls-1 {
        filter: url(#filter);
      }

      .cls-2 {
        filter: url(#filter-2);
      }

      .cls-3 {
        fill: #00baef;
      }

      .cls-5 {
        font-size: 334.375px;
        font-family: Arial;
      }

      .cls-5, .cls-6 {
        fill: #585858;
      }

      .cls-6 {
        font-size: 58.333px;
        font-family: Meiryo;
        font-weight: 700;
      }

      .cls-7 {
        font-size: 75px;
        font-family: Calibri;
      }
    </style>
    <filter id="filter" x="676.844" y="110.156" width="74.281" height="75.844" filterUnits="userSpaceOnUse">
      <feFlood result="flood" flood-color="#00baef"/>
      <feComposite result="composite" operator="in" in2="SourceGraphic"/>
      <feBlend result="blend" in2="SourceGraphic"/>
    </filter>
    <filter id="filter-2" x="601" y="18.5" width="75.844" height="76.656" filterUnits="userSpaceOnUse">
      <feFlood result="flood" flood-color="#00baef"/>
      <feComposite result="composite" operator="in" in2="SourceGraphic"/>
      <feBlend result="blend" in2="SourceGraphic"/>
    </filter>
  </defs>
  <path id="Эллипс_5" data-name="Эллипс 5" class="cls-1" d="M713.983,110.169c20.506,0,37.129,16.976,37.129,37.916S734.489,186,713.983,186s-37.128-16.975-37.128-37.915S693.478,110.169,713.983,110.169Z"/>
  <path id="Эллипс_4" data-name="Эллипс 4" class="cls-2" d="M638.928,18.507A38.33,38.33,0,1,1,601,56.835,38.129,38.129,0,0,1,638.928,18.507Z"/>
  <path id="Эллипс_1" data-name="Эллипс 1" class="cls-3" d="M764.562,1C794.075,1,818,25.438,818,55.585s-23.925,54.584-53.438,54.584-53.439-24.438-53.439-54.584S735.049,1,764.562,1Z"/>
  <path id="Прямоугольник_1" data-name="Прямоугольник 1" class="cls-3" d="M666.9,233.123h71.546v39.855H666.9V233.123Z"/>
  <path id="Эллипс_3" data-name="Эллипс 3" class="cls-3" d="M702.671,209c23.244,0,42.086,7.278,42.086,16.257s-18.842,16.257-42.086,16.257-42.086-7.279-42.086-16.257S679.428,209,702.671,209Z"/>
  <path id="Эллипс_2" data-name="Эллипс 2" class="cls-3" d="M703,266.39c64.065,0,116,52.072,116,116.305S767.065,499,703,499,587,446.929,587,382.7,638.935,266.39,703,266.39Z"/>
  <ellipse id="Эллипс_6" data-name="Эллипс 6" class="cls-4" cx="703" cy="224.5" rx="28" ry="7.5"/>
  <text id="All" class="cls-5" transform="translate(10.898 404.337) scale(1.55 1.599)">All</text>
  <text id="化学聊天" class="cls-6" transform="translate(728.306 66.922) scale(0.299 0.67)">化学聊天</text>
  <text id="All_Chemical" data-name="All Chemical" class="cls-7" transform="translate(0 487.06) scale(1.574 1.352)">All Chemical</text>
</svg>
